<svg width="169" height="168" xmlns="http://www.w3.org/2000/svg" xmlns:xlink="http://www.w3.org/1999/xlink" xml:space="preserve" overflow="hidden"><g transform="translate(-1057 -498)"><g><g><g><g><path d="M81.7604 21.7448C75.324 18.6135 68.7135 16.526 62.1031 15.6562 81.2385 34.6177 86.9792 64.3646 74.2802 89.9365 61.7552 115.508 34.2698 128.729 7.82812 125.076 12.525 129.773 18.2656 133.948 24.5281 137.079 56.3625 152.909 94.9812 139.863 110.637 108.028 126.294 76.1937 113.595 37.749 81.7604 21.7448Z" fill="#4D4D4D" fill-rule="nonzero" fill-opacity="1" transform="matrix(1.00599 0 0 1 1058 499)"/><path d="M151.17 94.8073C150.822 94.2854 150.822 93.5896 151.17 93.0677L154.475 88.1969C154.823 87.501 154.823 86.8052 154.475 86.2833 154.127 85.7615 153.257 85.4135 152.735 85.5875L147.343 86.9792C146.647 87.1531 145.951 86.8052 145.603 86.2833L142.298 81.4125C141.776 80.7167 141.08 80.5427 140.384 80.7167 139.689 80.8906 139.167 81.5865 139.167 82.2823L138.819 88.1969C138.819 88.8927 138.297 89.4146 137.601 89.7625L132.208 90.9802C131.512 91.1542 130.991 91.676 130.991 92.5458 130.991 93.2417 131.339 93.9375 132.034 94.1115L134.296 95.3292 137.253 96.8948C137.427 97.0687 137.775 97.2427 137.949 97.5906 138.123 97.9385 138.123 98.1125 138.123 98.4604L138.123 104.375C138.123 105.071 138.471 105.767 139.167 105.941 139.863 106.115 140.558 105.941 141.08 105.419L144.907 100.722C145.429 100.2 146.125 100.026 146.821 100.2L152.561 102.287C153.257 102.461 153.953 102.287 154.475 101.766 154.997 101.244 154.997 100.374 154.649 99.8521L151.17 94.8073Z" fill="#4D4D4D" fill-rule="nonzero" fill-opacity="1" transform="matrix(1.00599 0 0 1 1058 499)"/><path d="M134.644 51.4917 139.341 42.9677C139.863 41.924 140.906 41.4021 142.124 41.576L151.692 43.1417C152.909 43.3156 153.953 42.7938 154.475 41.75 154.997 40.7062 154.823 39.3146 154.127 38.6188L147.517 31.4865C146.821 30.7906 146.647 29.5729 146.995 28.5292L150.648 19.6573C150.996 18.6135 150.822 17.3958 150.126 16.7 149.43 16.0042 148.039 15.6562 147.169 16.1781L138.993 20.1792C137.949 20.701 136.731 20.3531 136.035 19.6573L129.425 13.0469C128.555 12.1771 127.164 12.0031 126.12 12.351 125.076 12.8729 124.554 14.0906 124.554 15.1344L125.772 24.3542C125.946 25.5719 125.424 26.6156 124.38 27.1375L116.204 31.1385C115.16 31.6604 114.639 32.7042 114.812 33.9219 114.986 34.9656 115.856 36.0094 116.9 36.1833L120.901 37.401 126.12 38.9667C126.642 39.1406 126.99 39.4885 127.511 39.8365 127.859 40.1844 128.033 40.7062 128.207 41.2281L129.773 50.7958C129.947 52.0135 130.817 52.8833 132.034 53.0573 133.252 53.2313 134.122 52.5354 134.644 51.4917Z" fill="#4D4D4D" fill-rule="nonzero" fill-opacity="1" transform="matrix(1.00599 0 0 1 1058 499)"/></g></g></g></g></g></svg>