<svg width="168" height="168" xmlns="http://www.w3.org/2000/svg" xmlns:xlink="http://www.w3.org/1999/xlink" xml:space="preserve" overflow="hidden"><g transform="translate(-53 -56)"><g><g><g><g><path d="M98.8083 18.2656 105.767 18.2656 105.767 39.1406 98.8083 39.1406Z" fill="#4D4D4D" fill-rule="nonzero" fill-opacity="1" transform="matrix(1 0 0 1.00599 54 56)"/><path d="M123.005 38.0356 143.942 38.0356 143.942 45.0146 123.005 45.0146Z" fill="#4D4D4D" fill-rule="nonzero" fill-opacity="1" transform="matrix(-0.705005 0.709227 -0.705005 -0.709227 310.529 32.473)"/><path d="M135.34 68.7135 156.215 68.7135 156.215 75.6719 135.34 75.6719Z" fill="#4D4D4D" fill-rule="nonzero" fill-opacity="1" transform="matrix(1 0 0 1.00599 54 56)"/><path d="M129.984 92.8208 136.963 92.8208 136.963 113.758 129.984 113.758Z" fill="#4D4D4D" fill-rule="nonzero" fill-opacity="1" transform="matrix(-0.705005 0.709227 -0.705005 -0.709227 354.038 138.114)"/><path d="M48.3604 68.7135 69.2354 68.7135 69.2354 75.6719 48.3604 75.6719Z" fill="#4D4D4D" fill-rule="nonzero" fill-opacity="1" transform="matrix(1 0 0 1.00599 54 56)"/><path d="M68.3943 31.0566 75.3733 31.0566 75.3733 51.9936 68.3943 51.9936Z" fill="#4D4D4D" fill-rule="nonzero" fill-opacity="1" transform="matrix(-0.705005 0.709227 -0.705005 -0.709227 205.516 76.2426)"/><path d="M112.725 115.682C111.855 115.682 110.985 115.682 110.116 115.856 110.116 115.856 110.116 115.682 110.116 115.682 110.116 109.072 106.984 102.635 101.418 98.8083 96.025 94.8073 89.0667 93.7635 82.6302 95.851 77.2375 85.7615 65.5823 80.5427 54.449 83.326 43.3156 85.9354 35.4875 95.851 35.1396 107.332 27.8333 105.941 20.0052 108.724 15.1344 114.812 10.4375 120.901 9.39375 129.251 12.525 136.209 15.6562 143.342 22.4406 148.039 30.2687 148.56L113.769 148.734C122.815 148.56 130.121 140.906 129.773 131.686 129.599 122.641 121.945 115.508 112.725 115.682Z" fill="#4D4D4D" fill-rule="nonzero" fill-opacity="1" transform="matrix(1 0 0 1.00599 54 56)"/><path d="M77.5854 80.5427C80.7167 82.4563 83.674 85.0656 85.9354 88.0229 94.9812 86.9792 103.853 90.2844 109.942 97.0687 120.031 93.9375 127.337 85.0656 128.207 74.4542 129.077 63.8427 123.51 53.7531 114.117 48.8823 104.723 44.0115 93.2417 45.4031 85.2396 52.3615 77.2375 59.3198 74.2802 70.4531 77.5854 80.5427L77.5854 80.5427Z" fill="#4D4D4D" fill-rule="nonzero" fill-opacity="1" transform="matrix(1 0 0 1.00599 54 56)"/></g></g></g></g></g></svg>