<svg width="168" height="168" xmlns="http://www.w3.org/2000/svg" xmlns:xlink="http://www.w3.org/1999/xlink" xml:space="preserve" overflow="hidden"><g transform="translate(-388 -204)"><g><g><g><g><path d="M95.851 126.12C95.851 132.904 90.4583 138.297 83.674 138.297 76.8896 138.297 71.4969 132.904 71.4969 126.12 71.4969 119.335 83.674 101.766 83.674 101.766 83.674 101.766 95.851 119.509 95.851 126.12Z" fill="#4D4D4D" fill-rule="nonzero" fill-opacity="1" transform="matrix(1.00599 0 0 1 388 204)"/><path d="M121.945 119.161C121.945 124.032 118.118 127.859 113.247 127.859 108.376 127.859 104.549 124.032 104.549 119.161 104.549 114.291 113.247 101.766 113.247 101.766 113.247 101.766 121.945 114.465 121.945 119.161Z" fill="#4D4D4D" fill-rule="nonzero" fill-opacity="1" transform="matrix(1.00599 0 0 1 388 204)"/><path d="M62.799 119.161C62.799 124.032 58.9719 127.859 54.101 127.859 49.2302 127.859 45.4031 124.032 45.4031 119.161 45.4031 114.291 54.101 101.766 54.101 101.766 54.101 101.766 62.799 114.465 62.799 119.161Z" fill="#4D4D4D" fill-rule="nonzero" fill-opacity="1" transform="matrix(1.00599 0 0 1 388 204)"/><path d="M142.82 78.2812C142.82 73.4104 140.732 68.8875 137.079 65.7562 133.426 62.625 128.555 61.2333 123.684 62.1031L123.684 61.9292C123.684 55.3187 120.553 48.8823 114.986 45.0552 109.594 41.0542 102.635 40.0104 96.199 42.0979 90.8063 32.0083 79.151 26.7896 68.0177 29.5729 56.8844 32.1823 48.8823 42.0979 48.7083 53.5792 41.0542 52.1875 33.226 55.1448 28.5292 61.2333 23.6583 67.3219 22.6146 75.4979 25.7458 82.6302 28.8771 89.7625 35.6615 94.4594 43.4896 94.9812L126.99 94.9812C136.035 94.4594 142.82 87.1531 142.82 78.2812Z" fill="#4D4D4D" fill-rule="nonzero" fill-opacity="1" transform="matrix(1.00599 0 0 1 388 204)"/></g></g></g></g></g></svg>