<svg width="170" height="170" xmlns="http://www.w3.org/2000/svg" xmlns:xlink="http://www.w3.org/1999/xlink" xml:space="preserve" overflow="hidden"><g transform="translate(-722 -350)"><g><g><g><g><path d="M857.225 460.025 849.35 455.475 855.475 453.9C857.4 453.375 858.45 451.45 857.925 449.7 857.4 447.95 855.475 446.725 853.725 447.25L840.775 450.75 835.7 447.775 851.45 443.575C853.375 443.05 854.425 441.125 853.9 439.375 853.375 437.625 851.45 436.4 849.7 436.925L827.125 442.875 820.475 439.025C820.825 437.8 821 436.575 821 435.35 821 434.125 820.825 432.725 820.475 431.675L827.125 427.825 849.7 433.775C850.05 433.775 850.225 433.95 850.575 433.95 852.15 433.95 853.55 432.9 853.9 431.325 854.425 429.4 853.375 427.475 851.45 427.125L835.7 422.925 840.775 419.95 853.725 423.45C854.075 423.45 854.25 423.625 854.6 423.625 856.175 423.625 857.575 422.575 857.925 421 858.45 419.075 857.4 417.15 855.475 416.8L849.35 415.225 857.225 410.675C858.975 409.625 859.5 407.525 858.45 405.95 857.4 404.2 855.3 403.675 853.725 404.725L845.85 409.275 847.425 403.15C847.95 401.225 846.9 399.3 844.975 398.95 843.05 398.425 841.125 399.475 840.775 401.4L837.275 414.35 832.2 417.325 836.4 401.575C836.925 399.65 835.875 397.725 833.95 397.375 832.025 396.85 830.1 397.9 829.75 399.825L823.8 422.4 817.15 426.25C815.4 424.5 813.125 423.1 810.675 422.575L810.675 414.875 827.125 398.425C828.525 397.025 828.525 394.925 827.125 393.525 825.725 392.125 823.625 392.125 822.225 393.525L810.5 403.85 810.5 398.075 819.95 388.625C821.35 387.225 821.35 385.125 819.95 383.725 818.55 382.325 816.45 382.325 815.05 383.725L810.5 388.1 810.5 379C810.5 377.075 808.925 375.5 807 375.5 805.075 375.5 803.5 377.075 803.5 379L803.5 388.1 798.95 383.55C797.55 382.15 795.45 382.15 794.05 383.55 792.65 384.95 792.65 387.05 794.05 388.45L803.5 397.9 803.5 403.675 791.95 392.125C790.55 390.725 788.45 390.725 787.05 392.125 785.65 393.525 785.65 395.625 787.05 397.025L803.5 413.475 803.5 421.175C801.05 421.875 798.775 423.1 797.025 424.85L790.375 421 784.25 398.775C783.725 396.85 781.8 395.8 780.05 396.325 778.125 396.85 777.075 398.775 777.6 400.525L781.8 416.275 776.725 413.3 773.225 400.35C772.7 398.425 770.775 397.375 769.025 397.9 767.1 398.425 766.05 400.35 766.575 402.1L768.15 408.225 760.275 403.675C758.525 402.625 756.425 403.325 755.55 404.9 754.5 406.65 755.2 408.75 756.775 409.625L764.65 414.175 758.525 415.75C756.6 416.275 755.55 418.2 756.075 419.95 756.425 421.525 757.825 422.575 759.4 422.575 759.75 422.575 759.925 422.575 760.275 422.4L773.225 418.9 778.3 421.875 762.55 426.075C760.625 426.6 759.575 428.525 760.1 430.275 760.45 431.85 761.85 432.9 763.425 432.9 763.775 432.9 763.95 432.9 764.3 432.725L786.875 426.775 793.525 430.625C793.175 432.375 793 433.775 793 435 793 436.225 793.175 437.625 793.525 438.675L786.875 442.525 764.3 436.575C762.375 436.05 760.45 437.1 760.1 439.025 759.75 440.95 760.625 442.875 762.55 443.225L778.3 447.425 773.225 450.4 760.275 446.9C758.35 446.375 756.425 447.425 756.075 449.35 755.725 451.275 756.6 453.2 758.525 453.55L764.65 455.125 756.775 459.675C755.025 460.725 754.5 462.825 755.55 464.4 756.25 465.45 757.3 466.15 758.525 466.15 759.05 466.15 759.75 465.975 760.275 465.625L768.15 461.075 766.575 467.2C766.05 469.125 767.1 471.05 769.025 471.4 769.375 471.4 769.55 471.575 769.9 471.575 771.475 471.575 772.875 470.525 773.225 468.95L776.725 456 781.8 453.025 777.6 468.775C777.075 470.7 778.125 472.625 780.05 472.975 780.4 472.975 780.575 473.15 780.925 473.15 782.5 473.15 783.9 472.1 784.25 470.525L790.2 447.95 796.85 444.1C798.6 445.85 800.875 447.25 803.325 447.775L803.325 455.475 786.875 471.925C785.475 473.325 785.475 475.425 786.875 476.825 788.275 478.225 790.375 478.225 791.775 476.825L803.325 465.275 803.325 471.05 793.875 480.5C792.475 481.9 792.475 484 793.875 485.4 795.275 486.8 797.375 486.8 798.775 485.4L803.325 480.85 803.325 491C803.325 492.925 804.9 494.5 806.825 494.5 808.75 494.5 810.325 492.925 810.325 491L810.325 481.9 814.875 486.45C815.75 487.15 816.625 487.5 817.5 487.5 818.375 487.5 819.25 487.15 819.95 486.45 821.35 485.05 821.35 482.95 819.95 481.55L810.5 472.1 810.5 466.325 822.05 477.875C822.75 478.4 823.625 478.75 824.5 478.75 825.375 478.75 826.25 478.4 826.95 477.7 828.35 476.3 828.35 474.2 826.95 472.8L810.5 456.35 810.5 448.65C812.95 447.95 815.225 446.725 816.975 444.975L823.625 448.825 829.75 471.225C830.1 472.8 831.5 473.85 833.075 473.85 833.425 473.85 833.6 473.85 833.95 473.675 835.875 473.15 836.925 471.225 836.4 469.475L832.2 453.725 837.275 456.7 840.775 469.65C841.125 471.225 842.525 472.275 844.1 472.275 844.45 472.275 844.625 472.275 844.975 472.1 846.9 471.575 847.95 469.65 847.425 467.9L845.85 461.775 853.725 466.325C854.25 466.675 854.95 466.85 855.475 466.85 856.7 466.85 857.925 466.15 858.45 465.1 859.5 463 858.975 460.9 857.225 460.025Z" fill="#4D4D4D" fill-rule="nonzero" fill-opacity="1"/></g></g></g></g></g></svg>